<svg id='kitchen' width="43" height="46" viewBox="0 0 43 46"  xmlns="http://www.w3.org/2000/svg">
    <g clip-path="url(#clip0_15233_1846)">
        <path
            d="M25.4725 35.7949C27.6565 37.3334 29.8055 38.8334 31.9312 40.3334C33.1692 41.2052 33.6363 42.641 33.1692 44.0257C32.5385 45.8975 30.5063 46.5898 28.9763 45.4103C26.8974 43.8205 24.8302 42.1923 22.7629 40.5769C22.2841 40.2052 21.8052 39.8462 21.338 39.4616C21.1045 39.2693 20.9526 39.2949 20.7307 39.4744C18.2314 41.4359 15.7203 43.3975 13.1976 45.3334C11.7026 46.4872 9.78722 45.9744 9.03975 44.2436C8.43242 42.8462 8.85288 41.2564 10.0792 40.3846C11.8545 39.1154 13.6414 37.8718 15.4166 36.6282C15.7904 36.359 16.1758 36.0898 16.5846 35.8077C16.4561 35.6923 16.351 35.6026 16.2459 35.5257C14.1786 33.9103 12.0997 32.3077 10.0442 30.6795C9.7989 30.4872 9.62371 30.4744 9.34341 30.6154C4.75345 32.9231 -0.0467451 28.718 -2.79282e-05 24.077C0.0233307 21.3975 1.77522 19.1026 4.2162 18.577C7.55648 17.859 11.0836 20.2308 11.9479 23.8205C12.1231 24.5385 12.1231 25.3077 12.1698 26.0513C12.1815 26.3205 12.2282 26.4872 12.4384 26.6411C15.2181 28.5898 17.9978 30.5385 20.7658 32.5C20.9643 32.641 21.1045 32.641 21.3147 32.5C24.0827 30.5385 26.8624 28.5898 29.642 26.6411C29.8639 26.4872 29.9106 26.3205 29.899 26.0513C29.7004 21.2949 33.3911 18.4616 36.6029 18.4616C40.6439 18.4487 43.1433 22.5257 41.6133 26.6282C40.3403 30.0257 36.4744 32.5641 32.6436 30.5769C32.5268 30.5128 32.3283 30.5 32.2115 30.5769C31.9078 30.7693 31.6392 31.0128 31.3472 31.2308C29.3968 32.7308 27.458 34.2436 25.4725 35.7949ZM5.43084 20C2.97819 20 1.19126 22 1.42485 24.577C1.76355 28.1667 5.65275 31.1667 9.07478 29C9.58867 28.6795 9.95073 28.718 10.4179 29.0769C14.5641 32.3205 18.7102 35.5513 22.868 38.7821C25.1221 40.5385 27.3879 42.3077 29.6537 44.0641C30.2961 44.5641 30.9968 44.5385 31.4874 44.0128C32.1764 43.2821 32.0012 42.2052 31.0903 41.5641C24.5382 36.9487 17.9861 32.3334 11.4106 27.7564C10.815 27.3462 10.5464 26.8975 10.7566 26.1539C10.7916 26.0257 10.78 25.8718 10.7916 25.718C10.8384 22.6026 8.39739 20 5.43084 20ZM22.3425 33.5898C22.868 33.9616 23.3586 34.2693 23.8141 34.6411C24.106 34.8718 24.2929 34.8334 24.5732 34.6154C26.9675 32.7308 29.3734 30.8718 31.7793 28.9872C32.1297 28.718 32.4451 28.6411 32.8188 28.8975C35.9956 31.0257 39.3592 28.718 40.3519 25.8975C41.2512 23.3205 40.1067 20.8077 37.7358 20.1282C34.816 19.3077 30.7632 22.0128 31.3706 26.3718C31.4523 26.9359 31.3005 27.2949 30.845 27.6026C28.4741 29.2436 26.1266 30.9103 23.7673 32.5769C23.3002 32.9103 22.833 33.2436 22.3425 33.5898ZM19.8197 38.2949C19.1891 37.8077 18.5817 37.3205 17.9744 36.8718C17.8927 36.8077 17.6941 36.8462 17.6007 36.9231C15.3232 38.5128 13.0574 40.1154 10.7916 41.7051C10.4296 41.9616 10.2077 42.3334 10.1843 42.8077C10.1376 43.3975 10.3478 43.8846 10.815 44.1795C11.3406 44.5257 11.8778 44.4744 12.38 44.0898C13.618 43.1282 14.856 42.1667 16.094 41.2051C17.3087 40.2564 18.5467 39.2949 19.8197 38.2949Z"
             />
        <path
            d="M28.7078 26.2949C28.2406 26.1923 27.8201 26.0898 27.3646 25.9872C27.4931 25.2693 27.6099 24.5769 27.7384 23.859C23.2652 23.859 18.8154 23.859 14.3422 23.859C14.459 24.5641 14.5875 25.2564 14.716 26C14.2605 26.1026 13.8283 26.1923 13.3495 26.2949C13.1042 24.9616 12.8706 23.6795 12.637 22.3975C12.2283 20.1795 11.8195 17.9744 11.4341 15.7564C11.3757 15.4487 11.2822 15.3334 11.0019 15.2821C7.67335 14.7436 5.29077 11.4103 5.62947 7.83335C5.99153 4.03848 8.93471 1.28207 12.3801 1.5513C13.5013 1.64104 14.5408 2.03848 15.4751 2.74361C15.5802 2.82053 15.6853 2.91027 15.8021 2.9872C18.3716 -0.987163 23.674 -0.999983 26.2668 2.9872C27.0376 2.37181 27.8785 1.91027 28.8129 1.69232C32.2466 0.858991 35.7153 3.33335 36.3577 7.07694C37.0351 11.0257 34.6759 14.718 31.102 15.2821C30.7984 15.3334 30.7049 15.4616 30.6465 15.7821C30.0509 19.1154 29.4436 22.4359 28.8362 25.7564C28.8012 25.9231 28.7545 26.0769 28.7078 26.2949ZM14.0386 22.2693C14.9612 22.2693 15.8372 22.2693 16.7131 22.2693C16.5146 20.7693 16.3277 19.2949 16.1408 17.8077C16.6197 17.7308 17.0635 17.6667 17.519 17.5898C17.7292 19.1923 17.9394 20.7308 18.138 22.2821C18.8855 22.2821 19.5979 22.2821 20.3454 22.2821C20.3454 19.4616 20.3454 16.6667 20.3454 13.8718C20.8242 13.8718 21.2564 13.8718 21.7352 13.8718C21.7352 16.6923 21.7352 19.4872 21.7352 22.2821C22.4944 22.2821 23.1951 22.2821 23.9192 22.2821C24.1295 20.718 24.328 19.1667 24.5383 17.5769C25.0171 17.6539 25.4609 17.7308 25.9164 17.8077C25.7179 19.3205 25.531 20.7949 25.3441 22.2821C26.2434 22.2821 27.1194 22.2821 28.007 22.2821C28.042 22.0898 28.0888 21.9103 28.1238 21.718C28.5442 19.3975 28.9647 17.0769 29.3968 14.7564C29.537 13.9872 29.6771 13.8718 30.3896 13.8334C32.8656 13.7051 34.9211 11.4616 35.0379 8.75643C35.1314 6.50002 34.0102 4.47438 32.1531 3.5513C30.3195 2.64104 28.2289 3.0513 26.7223 4.6154C26.1383 5.21797 25.7412 5.14104 25.3441 4.38463C24.3864 2.53848 22.9382 1.56412 21.0228 1.56412C19.1191 1.56412 17.6825 2.5513 16.7365 4.37181C16.3277 5.15386 15.9423 5.21797 15.3233 4.60258C14.0152 3.26925 12.4852 2.76925 10.7567 3.24361C8.44418 3.85899 6.92587 6.12822 7.03099 8.74361C7.12442 11.2564 8.86464 13.3975 11.1888 13.7564C12.6604 13.9872 12.4852 13.7821 12.8122 15.5385C13.221 17.7821 13.6181 20.0257 14.0386 22.2693Z"
             />
        <path
            d="M40.8892 30.3846C41.2045 30.7564 41.4965 31.1026 41.8235 31.5C40.9475 32.3975 39.9782 33.077 38.892 33.5641C36.9883 34.4231 35.0261 34.5513 33.0173 34.0385C32.8421 33.9872 32.5852 34.0385 32.4333 34.1539C31.5691 34.7949 30.7165 35.4744 29.8405 36.1539C29.5719 35.7308 29.315 35.3462 29.0347 34.9231C29.2916 34.718 29.5252 34.5129 29.7705 34.3205C30.5296 33.7308 31.2771 33.1154 32.0596 32.5641C32.2698 32.4103 32.6202 32.3205 32.8655 32.3975C35.8087 33.3205 38.4248 32.6795 40.7373 30.5128C40.7724 30.4616 40.8191 30.4359 40.8892 30.3846Z"
             />
        <path
            d="M4.61335 11.2821C4.20457 11.4359 3.7958 11.6026 3.38702 11.7564C2.05558 8.42311 2.94321 2.9231 6.89081 0.141052C7.13608 0.538488 7.38134 0.948745 7.63829 1.359C4.62503 3.9231 3.59725 7.19234 4.61335 11.2821Z"
             />
        <path
            d="M5.06892 15.0769C4.70686 14.5257 4.37984 14.0257 4.0061 13.4744C4.42656 13.2051 4.8003 12.9615 5.20907 12.7051C5.51273 13.1539 5.80471 13.6026 6.10838 14.0641C5.78136 14.3846 5.45434 14.7051 5.06892 15.0769Z"
             />
    </g>
    <defs>
        <clipPath id="clip0_15233_1846">
            <rect width="42.0571" height="46" fill="white" />
        </clipPath>
    </defs>
</svg>